<svg width="100%" height="100%" viewBox="0 0 22 16" xmlns="http://www.w3.org/2000/svg">
  <rect width="22" height="16" rx="2.2" fill="#2B9F5A" />
  <path fill-rule="evenodd" clip-rule="evenodd" d="M11 2.0625L2.0625 8.25L11 14.4375L19.9375 8.25L11 2.0625Z" fill="#FFD018" />
  <path d="M15.125 8.25C15.125 10.5282 13.2782 12.375 11 12.375C8.72183 12.375 6.875 10.5282 6.875 8.25C6.875 5.97183 8.72183 4.125 11 4.125C13.2782 4.125 15.125 5.97183 15.125 8.25Z" fill="#41479B" />
  <mask id="mask0" mask-type="alpha" maskUnits="userSpaceOnUse" x="6" y="4" width="10" height="9">
    <path d="M15.125 8.25C15.125 10.5282 13.2782 12.375 11 12.375C8.72183 12.375 6.875 10.5282 6.875 8.25C6.875 5.97183 8.72183 4.125 11 4.125C13.2782 4.125 15.125 5.97183 15.125 8.25Z" fill="#41479B" />
  </mask>
  <g mask="url(#mask0)">
    <path fill-rule="evenodd" clip-rule="evenodd" d="M6.24465 7.3874L6.18821 6.87487C6.13165 6.36236 6.13174 6.36235 6.13184 6.36234L6.13521 6.36197L6.14325 6.36112L6.1724 6.35814C6.19753 6.35563 6.2339 6.35215 6.2806 6.34803C6.37396 6.33981 6.50871 6.32906 6.6774 6.31864C7.0145 6.2978 7.48866 6.27815 8.04006 6.28263C9.1347 6.29152 10.5682 6.39551 11.8421 6.79401C13.1072 7.18974 14.1838 7.80149 14.9405 8.30971C15.3201 8.56463 15.6223 8.79563 15.831 8.9641C15.9354 9.04839 16.0166 9.11719 16.0725 9.16572C16.1005 9.18999 16.1222 9.2092 16.1373 9.22277L16.1551 9.2388L16.1603 9.24351L16.1619 9.24501C16.162 9.2451 16.1629 9.24593 15.8132 9.62486C15.4635 10.0038 15.4636 10.0039 15.4637 10.0039L15.4613 10.0018L15.4493 9.99097C15.4381 9.98093 15.4205 9.96534 15.3968 9.94477C15.3494 9.90362 15.2775 9.84263 15.1831 9.76647C14.9943 9.61403 14.7165 9.40147 14.3656 9.1658C13.6613 8.69281 12.6754 8.1352 11.5343 7.77823C10.402 7.42403 9.08548 7.3224 8.03168 7.31384C7.50886 7.3096 7.05919 7.32826 6.74102 7.34792C6.58207 7.35775 6.45632 7.3678 6.37109 7.37531C6.32849 7.37906 6.29605 7.38217 6.27468 7.3843L6.25107 7.38671L6.24465 7.3874Z" fill="#F5F8FB" />
  </g>
  <path d="M9.625 9.96875C9.625 10.1586 9.4711 10.3125 9.28125 10.3125C9.0914 10.3125 8.9375 10.1586 8.9375 9.96875C8.9375 9.7789 9.0914 9.625 9.28125 9.625C9.4711 9.625 9.625 9.7789 9.625 9.96875Z" fill="#F5F8FB" />
  <path d="M11.6875 10.6562C11.6875 10.8461 11.5336 11 11.3438 11C11.1539 11 11 10.8461 11 10.6562C11 10.4664 11.1539 10.3125 11.3438 10.3125C11.5336 10.3125 11.6875 10.4664 11.6875 10.6562Z" fill="#F5F8FB" />
  <path d="M13.0625 9.96875C13.0625 10.1586 12.9086 10.3125 12.7188 10.3125C12.5289 10.3125 12.375 10.1586 12.375 9.96875C12.375 9.7789 12.5289 9.625 12.7188 9.625C12.9086 9.625 13.0625 9.7789 13.0625 9.96875Z" fill="#F5F8FB" />
</svg>
