<svg version="1.1" class="location" xmlns="http://www.w3.org/2000/svg" xmlns:xlink="http://www.w3.org/1999/xlink" x="0px" y="0px"
	 viewBox="0 0 511.999 511.999" style="enable-background:new 0 0 511.999 511.999;" xml:space="preserve">
<g>
	<g>
		<path d="M408,67.031c-1.868-1.879-3.796-3.751-5.731-5.565c-3.027-2.836-7.78-2.68-10.615,0.346
			c-2.836,3.027-2.681,7.78,0.346,10.616c1.807,1.692,3.606,3.439,5.349,5.192c21.275,21.398,36.831,49.091,44.986,80.085
			c7.919,30.095,8.622,62.043,2.034,92.393c-11.443,52.716-49.309,93.322-85.928,132.591c-7.987,8.565-16.246,17.422-24.057,26.226
			c-21.924,24.714-61.237,69.417-77.122,87.49c-0.42,0.478-0.883,0.565-1.28,0.574c-0.345-0.003-0.84-0.105-1.243-0.578
			c-17.584-20.649-35.952-41.154-53.716-60.984c-7.772-8.677-15.808-17.647-23.663-26.502c-7.812-8.806-16.071-17.662-24.058-26.228
			c-36.618-39.268-74.484-79.873-85.926-132.585c-6.77-31.194-5.485-64.364,3.715-95.923c9.212-31.6,25.968-60.224,48.455-82.776
			c36.279-36.385,85.934-56.982,136.242-56.373c33.872,0.376,68.558,10.798,100.308,30.136c3.543,2.159,8.163,1.037,10.32-2.507
			c2.158-3.543,1.035-8.163-2.507-10.32c-34.055-20.741-71.385-31.92-107.954-32.328C201.634-0.566,148.03,21.562,108.91,60.797
			c-24.26,24.331-42.324,55.168-52.239,89.178c-9.899,33.955-11.273,69.68-3.973,103.313c12.318,56.749,51.615,98.89,89.618,139.643
			c7.925,8.499,16.119,17.286,23.807,25.952c7.879,8.881,15.927,17.867,23.712,26.556c17.701,19.761,36.006,40.194,53.467,60.7
			c3.138,3.686,7.717,5.821,12.561,5.859c0.044,0.001,0.088,0.001,0.132,0.001c4.806,0,9.373-2.065,12.548-5.678
			c15.878-18.065,55.173-62.748,77.075-87.437c7.688-8.666,15.882-17.453,23.806-25.95c38.005-40.754,77.303-82.896,89.621-139.649
			C473.874,184.98,454.314,113.612,408,67.031z"/>
	</g>
</g>
<g>
	<g>
		<path d="M255.654,75.264c-73.318,0-132.966,59.648-132.966,132.966c0,29.136,9.25,56.8,26.749,79.999
			c2.497,3.31,7.206,3.971,10.518,1.473c3.311-2.497,3.971-7.207,1.473-10.518c-15.518-20.572-23.72-45.108-23.72-70.954
			c0-65.036,52.91-117.947,117.946-117.947S373.6,143.194,373.6,208.23s-52.91,117.945-117.946,117.945
			c-21.892,0-43.26-6.038-61.795-17.463c-3.532-2.176-8.157-1.078-10.333,2.452c-2.176,3.532-1.078,8.158,2.453,10.335
			c20.905,12.885,44.999,19.696,69.675,19.696c73.318,0,132.966-59.648,132.966-132.965
			C388.62,134.912,328.972,75.264,255.654,75.264z"/>
	</g>
</g>
<g>
	<g>
		<path d="M330.26,187.319c-1.483-4.565-5.355-7.829-10.104-8.518l-37.828-5.498l-16.917-34.277
			c-2.124-4.304-6.425-6.977-11.224-6.977s-9.1,2.674-11.224,6.977l-16.917,34.277l-37.827,5.498
			c-4.75,0.689-8.621,3.953-10.105,8.518c-1.483,4.565-0.269,9.481,3.167,12.831l27.372,26.682l-6.462,37.674
			c-0.812,4.73,1.097,9.422,4.98,12.243c2.194,1.594,4.761,2.404,7.345,2.404c1.99,0,3.989-0.48,5.837-1.451l33.833-17.788
			l33.833,17.788c4.248,2.232,9.297,1.869,13.181-0.952c3.883-2.82,5.792-7.512,4.981-12.243l-6.462-37.674l27.372-26.682
			C330.53,196.799,331.743,191.883,330.26,187.319z M288.295,216.993c-2.952,2.876-4.298,7.018-3.601,11.08l5.827,33.972
			l-30.51-16.04c-3.647-1.917-8.001-1.917-11.649,0l-30.509,16.04l5.827-33.971c0.697-4.062-0.649-8.203-3.6-11.08l-24.683-24.059
			l34.109-4.957c4.08-0.592,7.604-3.153,9.426-6.847l15.254-30.909l15.254,30.908c1.824,3.696,5.347,6.256,9.425,6.848l34.111,4.957
			L288.295,216.993z"/>
	</g>
</g>
</svg>