<svg id="mail-error" enable-background="new 0 0 512 512" height="512" viewBox="0 0 512 512" width="512" xmlns="http://www.w3.org/2000/svg"><path d="m474.5 61h-437c-20.678 0-37.5 16.822-37.5 37.5v315c0 20.678 16.822 37.5 37.5 37.5h437c20.678 0 37.5-16.822 37.5-37.5v-315c0-20.678-16.822-37.5-37.5-37.5zm-146.893 195 167.194-167.194c1.409 2.937 2.199 6.225 2.199 9.694v315c0 3.469-.79 6.757-2.199 9.694zm146.893-180c3.469 0 6.757.791 9.694 2.199l-191.072 191.072c-9.915 9.916-23.099 15.377-37.122 15.377s-27.207-5.461-37.122-15.378l-88.037-88.037c-2.93-2.928-7.678-2.928-10.607 0-2.929 2.93-2.929 7.678 0 10.607l64.159 64.16-167.194 167.194c-1.409-2.937-2.199-6.225-2.199-9.694v-315c0-3.469.79-6.757 2.199-9.694l81.822 81.822c1.465 1.464 3.385 2.196 5.304 2.196s3.839-.732 5.304-2.196c2.929-2.93 2.929-7.678 0-10.607l-81.823-81.822c2.937-1.409 6.225-2.199 9.694-2.199zm-437 360c-3.469 0-6.757-.79-9.694-2.199l167.194-167.194 13.27 13.27c12.749 12.75 29.699 19.771 47.729 19.771s34.98-7.021 47.729-19.771l13.272-13.27 167.194 167.194c-2.937 1.408-6.225 2.199-9.694 2.199z"/></svg>