<svg height='300px' width='300px'  fill="#000000" xmlns="http://www.w3.org/2000/svg" data-name="Layer 1" viewBox="0 0 128 128" x="0px" y="0px"><title>expand lines</title><path d="M80,66a9,9,0,0,0-4.17-7.54,14.06,14.06,0,0,1-2.66,3.1A5,5,0,0,1,76,66v9H52V66a5,5,0,0,1,2.83-4.44,14.06,14.06,0,0,1-2.66-3.1A9,9,0,0,0,48,66V77.2A1.81,1.81,0,0,0,49.83,79H78.17A1.81,1.81,0,0,0,80,77.2Z"></path><path d="M64,59a8,8,0,1,0-8-8A8,8,0,0,0,64,59Zm0-12a4,4,0,1,1-4,4A4,4,0,0,1,64,47Z"></path><path d="M24,78V56.63a2,2,0,0,0-.6-1.43L16.6,48.57a2,2,0,0,0-1.4-.57H2a2,2,0,0,0-2,2V78a2,2,0,0,0,2,2H22A2,2,0,0,0,24,78Zm-4-2H4V52H14.39L20,57.47Z"></path><path d="M127.4,55.19l-6.79-6.62a2,2,0,0,0-1.4-.57H106a2,2,0,0,0-2,2V78a2,2,0,0,0,2,2h20a2,2,0,0,0,2-2V56.63A2,2,0,0,0,127.4,55.19ZM124,76H108V52h10.39L124,57.47Z"></path><path d="M54,32H74a2,2,0,0,0,2-2V8.63a2,2,0,0,0-.6-1.43L68.6.57A2,2,0,0,0,67.21,0H54a2,2,0,0,0-2,2V30A2,2,0,0,0,54,32ZM56,4H66.39L72,9.47V28H56Z"></path><path d="M68.6,96.57a2,2,0,0,0-1.4-.57H54a2,2,0,0,0-2,2v28a2,2,0,0,0,2,2H74a2,2,0,0,0,2-2V104.63a2,2,0,0,0-.6-1.43ZM72,124H56V100H66.39L72,105.47Z"></path><path d="M94.46,46.86a2,2,0,0,0,2.83,0L112.84,31.3a2,2,0,0,0,0-2.83L101.53,17.16a2.06,2.06,0,0,0-2.83,0L83.14,32.72a2,2,0,0,0,0,2.83Zm5.66-25.46,8.49,8.49-2.83,2.83-8.49-8.49Zm-5.66,5.66,8.49,8.49-7.07,7.07-8.49-8.49Z"></path><path d="M29.71,47.86a2,2,0,0,0,2.83,0L43.86,36.54a2,2,0,0,0,0-2.83L28.3,18.16a2,2,0,0,0-2.83,0L14.16,29.47a2,2,0,0,0,0,2.83Zm9.9-12.73-8.49,8.49-7.07-7.07,8.49-8.49ZM26.89,22.4l2.83,2.83-8.49,8.49L18.4,30.89Z"></path><path d="M97.28,83.16a2,2,0,0,0-2.83,0L83.14,94.47a2,2,0,0,0,0,2.83L98.7,112.86a2,2,0,0,0,2.83,0l11.31-11.31a2,2,0,0,0,0-2.83Zm-9.9,12.73,8.49-8.49,7.07,7.07L94.46,103Zm12.73,12.73-2.83-2.83,8.49-8.49,2.83,2.83Z"></path><path d="M32.54,82.16a2.06,2.06,0,0,0-2.83,0L14.16,97.71a2,2,0,0,0,0,2.83l11.31,11.31a2,2,0,0,0,2.83,0L43.86,96.3a2,2,0,0,0,0-2.83Zm-5.66,25.46L18.4,99.13l2.83-2.83,8.49,8.49ZM32.54,102l-8.49-8.49,7.07-7.07,8.49,8.49Z"></path><path d="M85.86,81.62a2,2,0,0,0,2.78-.5q.3-.44.59-.89a2,2,0,1,0-3.36-2.17q-.25.39-.52.78A2,2,0,0,0,85.86,81.62Z"></path><path d="M73.81,37.69a2,2,0,0,0,1,2.65l.84.4a2,2,0,0,0,1.79-3.58l-1-.46A2,2,0,0,0,73.81,37.69Z"></path><path d="M94,65.07q0-.53,0-1.07a2,2,0,1,0-4,0q0,.47,0,.93A2,2,0,0,0,91.91,67H92A2,2,0,0,0,94,65.07Z"></path><path d="M89.24,47.78a2,2,0,1,0-3.36,2.16l.49.79a2,2,0,1,0,3.43-2.05Q89.53,48.23,89.24,47.78Z"></path><path d="M60,38.28l.29,0,.92-.11a2,2,0,0,0-.42-4l-1.06.13a2,2,0,0,0,.28,4Z"></path><path d="M89,56.67c.09.3.17.59.24.89a2,2,0,0,0,3.88-1q-.13-.52-.28-1A2,2,0,1,0,89,56.67Z"></path><path d="M90.57,74.84a2,2,0,0,0,1.9-1.37q.17-.51.32-1A2,2,0,0,0,89,71.33q-.13.44-.28.88a2,2,0,0,0,1.9,2.63Z"></path><path d="M81.72,45A2,2,0,0,0,84.44,42l-.8-.72a2,2,0,1,0-2.62,3Z"></path><path d="M54.19,90.31a2,2,0,0,0-1-2.65l-.84-.4a2,2,0,0,0-1.79,3.58l1,.46a2,2,0,0,0,2.65-1Z"></path><path d="M59.74,93.7l.28,0a2,2,0,0,0,.28-4l-.91-.15a2,2,0,0,0-.71,3.94Z"></path><path d="M48,40.94a2,2,0,0,0-2.81-.3l-.82.68a2,2,0,1,0,2.62,3l.72-.6A2,2,0,0,0,48,40.94Z"></path><path d="M46.28,83A2,2,0,0,0,43.56,86l.8.72a2,2,0,1,0,2.62-3Z"></path><path d="M83.64,86.68a2,2,0,0,0-2.62-3l-.72.6a2,2,0,1,0,2.51,3.11Z"></path><path d="M74.8,87.66,74,88a2,2,0,1,0,1.54,3.69l1-.43a2,2,0,0,0-1.66-3.64Z"></path><path d="M67,93.84h.21l1.06-.13a2,2,0,1,0-.56-4l-.92.11a2,2,0,0,0,.21,4Z"></path><path d="M38.76,80.22a2,2,0,0,0,3.36-2.16l-.49-.79a2,2,0,1,0-3.43,2.05Q38.47,79.77,38.76,80.22Z"></path><path d="M34,62.93q0,.53,0,1.07a2,2,0,0,0,4,0q0-.47,0-.93a2,2,0,1,0-4-.14Z"></path><path d="M42.14,46.38a2,2,0,0,0-2.78.5q-.3.44-.59.89a2,2,0,1,0,3.36,2.17q.25-.39.52-.78A2,2,0,0,0,42.14,46.38Z"></path><path d="M52.37,40.52a2,2,0,0,0,.83-.18L54,40a2,2,0,1,0-1.54-3.69l-1,.43a2,2,0,0,0,.83,3.82Z"></path><path d="M37.13,58.11A2,2,0,0,0,39,56.67q.13-.44.28-.88a2,2,0,0,0-3.79-1.27q-.17.51-.32,1a2,2,0,0,0,1.92,2.56Z"></path><path d="M68.62,38.41a2,2,0,0,0,.71-3.94l-1.06-.17a2,2,0,0,0-.56,4Z"></path><path d="M35.21,72.45A2,2,0,1,0,39,71.33q-.13-.44-.24-.89a2,2,0,0,0-3.88,1Q35.06,71.94,35.21,72.45Z"></path></svg>